<svg xmlns="http://www.w3.org/2000/svg" width="178" height="100"><path d="M43.714 10.675h-6.98c-6.857 0-12.672 5.22-12.672 15.353 0 6.08 2.816 10.563 7.833 12.774l-9.362 16.95c-.307.554 0 .984.487.984h4.347c.367 0 .613-.124.735-.43l8.507-16.644h3.063v16.644c0 .183.183.43.426.43h3.797c.367 0 .49-.184.49-.49V11.29c0-.43-.245-.615-.674-.615m-4.04 25.058h-2.57c-4.044 0-7.96-2.948-7.96-10.318 0-7.676 3.672-10.81 7.406-10.81h3.123v21.128z" fill="#f00"/><path d="M66.724 26.524H62.93c-.307 0-.49.246-.49.428v11.15h-7.042v-11.15c0-.304-.122-.426-.426-.426h-3.798c-.305 0-.49.183-.49.426v29.27c0 .306.122.488.427.488h3.86c.246 0 .427-.183.427-.49V41.973h7.043V56.22c0 .308.183.49.49.49h3.795c.306 0 .43-.246.43-.49V26.952c0-.243-.184-.43-.43-.43v.002m86.662 28.223l-.49-2.09c-.057-.18-.12-.242-.303-.242-.307 0-1.96.672-4.347.672-4.654 0-6.92-4.483-6.92-11.606 0-6.265 1.9-11.885 5.08-11.885.86 0 1.902.244 3.554 1.78.184.183.305.246.488.246.186 0 .37-.124.554-.43l1.653-2.702c.122-.185.183-.372.183-.555 0-.245-.244-.43-.61-.613-2.514-1.29-4.226-1.535-5.695-1.535-5.756 0-10.225 6.298-10.225 17.044 0 9.273 4.285 14.616 10.41 14.616 2.572 0 5.325-1.227 6.427-2.028.242-.183.305-.428.242-.673v.002M126.78 39.823l7.347-12.87c.123-.183.06-.43-.185-.43h-3.612c-1.04 0-1.41.37-1.772 1.167l-5.512 10.906c-.305.674-.61 1.104-.917 1.288v-12.93c0-.245-.123-.43-.37-.43h-3.977c-.183 0-.367.186-.367.43v29.328c0 .182.12.43.367.43h3.977c.247 0 .37-.184.37-.43V40.868c.182.12.306.304.427.55l6.98 14.37c.366.74.92.922 1.713.922h3.92c.243 0 .306-.246.182-.428l-8.57-16.46M91.7 52.843h-.735c-.918 0-1.163-.367-1.163-1.105V26.953c0-.304-.122-.428-.365-.428H77.192c-.306 0-.49.185-.49.43v2.21c0 7.43-.428 16.432-4.346 23.68H71.01c-.368 0-.49.18-.49.49v8.968c0 .308.246.428.428.428h2.94c.67 0 .917-.49.917-.922V56.71H87.91v5.593c0 .243.18.428.425.428h3.125c.365 0 .73-.304.73-.922v-8.474c0-.308-.182-.492-.487-.492m-6.612 0h-8.877c3.125-5.344 4.347-11.36 4.777-18.73.12-1.596.182-2.676.182-3.718h3.92v22.448m19.1-27.055c-6.61 0-9.55 7.772-9.55 16.86 0 9.274 4.16 14.8 10.283 14.8 3 0 5.634-1.166 6.98-2.028.242-.125.305-.307.242-.553l-.487-2.09c-.06-.242-.184-.364-.49-.364-.243 0-2.02.672-4.53.672-4.715 0-6.92-4.114-6.92-9.518v-1.453s2.387.287 3.796.287h8.94v-2.58c0-9.516-3.37-14.034-8.265-14.034h.002m-.675 12.747c-1.41 0-3.608.246-3.608.246s0-.922.12-1.906c.55-5.222 1.835-7.278 3.978-7.278 1.958 0 3.185 2.12 3.49 6.85.06.98.06 2.088.06 2.088h-4.04"/></svg>